<svg xmlns="http://www.w3.org/2000/svg" viewBox="0 0 144 144" fill="none">
  <defs>
    <linearGradient id="sigaproGreenMain" x1="0%" y1="0%" x2="100%" y2="100%">
      <stop offset="0%" stop-color="#2b9c6b" />
      <stop offset="100%" stop-color="#145b3f" />
    </linearGradient>
    <linearGradient id="sigaproGreenDark" x1="0%" y1="0%" x2="100%" y2="100%">
      <stop offset="0%" stop-color="#186b4b" />
      <stop offset="100%" stop-color="#104734" />
    </linearGradient>
    <linearGradient id="sigaproAccentWarm" x1="0%" y1="0%" x2="100%" y2="100%">
      <stop offset="0%" stop-color="#ff8f5b" />
      <stop offset="100%" stop-color="#ffd166" />
    </linearGradient>
    <filter id="shadow" x="-20%" y="-20%" width="140%" height="140%">
      <feDropShadow dx="0" dy="6" stdDeviation="8" flood-color="#0f172a" flood-opacity="0.16" />
    </filter>
  </defs>

  <rect x="8" y="8" width="128" height="128" rx="30" fill="#ffffff" filter="url(#shadow)" />
  <path d="M28 108V58l14-10v60z" fill="url(#sigaproGreenMain)" />
  <path d="M47 108V40l18-13v81z" fill="#1c7d57" />
  <path d="M69 108V20l22 13v75z" fill="url(#sigaproGreenMain)" />
  <path d="M97 108V50l17 10v48z" fill="url(#sigaproGreenDark)" />
  <path
    d="M89 37h16l8 9v13"
    stroke="url(#sigaproAccentWarm)"
    stroke-width="6"
    stroke-linecap="round"
    stroke-linejoin="round"
  />
  <rect x="35" y="67" width="56" height="32" rx="7" fill="#ffffff" />
  <path
    d="M41 74h44M41 82h44M41 90h44M53 67v32M69 67v32"
    stroke="#6b7f92"
    stroke-width="3"
    stroke-linecap="round"
  />
  <path d="M29 113h86" stroke="#15503b" stroke-width="7" stroke-linecap="round" />
</svg>
